<?xml version="1.0" encoding="UTF-8" standalone="no"?>
<!-- Created with Inkscape (http://www.inkscape.org/) -->

<svg
   xmlns:dc="http://purl.org/dc/elements/1.1/"
   xmlns:cc="http://creativecommons.org/ns#"
   xmlns:rdf="http://www.w3.org/1999/02/22-rdf-syntax-ns#"
   xmlns:svg="http://www.w3.org/2000/svg"
   xmlns="http://www.w3.org/2000/svg"
   xmlns:sodipodi="http://sodipodi.sourceforge.net/DTD/sodipodi-0.dtd"
   xmlns:inkscape="http://www.inkscape.org/namespaces/inkscape"
   width="297mm"
   height="210mm"
   viewBox="0 0 1052.3622 744.09448"
   id="svg2"
   version="1.1"
   inkscape:version="0.91 r13725"
   sodipodi:docname="real-time-R.svg">
  <defs
     id="defs4" />
  <sodipodi:namedview
     id="base"
     pagecolor="#ffffff"
     bordercolor="#666666"
     borderopacity="1.0"
     inkscape:pageopacity="0.0"
     inkscape:pageshadow="2"
     inkscape:zoom="0.7"
     inkscape:cx="435.37941"
     inkscape:cy="424.535"
     inkscape:document-units="px"
     inkscape:current-layer="layer1"
     showgrid="false"
     inkscape:window-width="1295"
     inkscape:window-height="744"
     inkscape:window-x="65"
     inkscape:window-y="24"
     inkscape:window-maximized="1" />
  <metadata
     id="metadata7">
    <rdf:RDF>
      <cc:Work
         rdf:about="">
        <dc:format>image/svg+xml</dc:format>
        <dc:type
           rdf:resource="http://purl.org/dc/dcmitype/StillImage" />
        <dc:title></dc:title>
      </cc:Work>
    </rdf:RDF>
  </metadata>
  <g
     inkscape:label="Layer 1"
     inkscape:groupmode="layer"
     id="layer1"
     transform="translate(0,-308.26772)">
    <path
       style="opacity:0.98000004;fill:#000000;fill-opacity:0.86473431;fill-rule:nonzero;stroke:none;stroke-width:1px;stroke-linecap:butt;stroke-linejoin:miter;stroke-opacity:1"
       id="path3340"
       d="m 392.93376,348.49233 c 1.34446,3.00021 1.58247,6.12187 1.82721,9.21859 0.32358,6.33643 0.11882,12.67678 0.21556,19.01501 0.42348,9.67057 -0.14993,19.33654 -0.78918,28.99671 -0.40193,7.42151 -1.0954,14.83891 -1.15105,22.26704 -0.0356,4.75629 0.1491,6.9355 0.39648,11.70728 1.07315,11.70157 3.04852,23.35908 4.12049,35.06046 0.77857,8.50287 0.72032,17.01516 0.15856,25.52039 -0.16082,4.37764 -0.86975,8.72998 -1.67129,13.07469 -0.41214,1.49166 -0.59699,3.04048 -1.56711,4.44045 -1.8034,2.62121 -8.51304,6.04202 -11.92995,4.28797 9.79134,-4.92336 7.0402,-4.7787 13.76991,-4.6902 5.78933,0.007 11.56759,0.23196 17.35034,0.38209 12.43661,0.32461 24.88081,0.32327 37.32431,0.24768 20.0597,-0.0892 40.09245,0.70242 60.10608,1.46452 25.31729,1.07213 50.63679,2.09426 75.98351,2.84146 26.2016,0.76617 52.4294,0.85585 78.65045,0.60621 24.09933,-0.28525 48.14867,-1.38655 72.18909,-2.42974 21.34119,-0.97748 42.72201,-1.38944 64.11349,-1.42646 16.89793,0.171 33.79184,0.59431 50.6774,1.04111 10.37437,0.20193 20.72097,0.70576 31.06367,1.23242 2.28127,0.11316 4.5641,0.21401 6.84853,0.2978 0.81591,0.03 1.52637,0.13303 2.19146,-0.20036 0,0 -10.07949,4.9352 -10.07949,4.9352 l 0,0 c -2.93606,-0.14618 -5.85458,-0.41074 -8.78751,-0.5825 -10.11482,-0.67582 -20.24729,-1.23091 -30.41344,-1.48623 -16.7198,-0.53815 -33.45129,-1.04498 -50.19066,-1.22406 -21.28305,-0.009 -42.55848,0.37055 -63.79273,1.33236 -23.98269,1.01062 -47.97629,2.06163 -72.01568,2.30563 -26.20733,0.20354 -52.41912,0.0808 -78.60616,-0.67397 -25.43535,-0.74569 -50.84803,-1.7249 -76.26148,-2.72281 -20.21386,-0.68757 -40.45132,-1.36169 -60.70228,-1.13028 -12.64993,0.15663 -25.30091,0.21959 -37.95072,-0.002 -5.95078,-0.0991 -11.90086,-0.23657 -17.8539,-0.11985 -6.42195,0.0678 -6.64954,1.0303 6.8813,-4.64884 1.90729,-1.22559 -14.73817,5.51938 -10.17053,3.63585 1.49183,-1.20539 1.56831,-2.81741 2.13019,-4.25439 1.03666,-4.3764 1.92577,-8.76661 2.25861,-13.19166 0.84542,-8.5412 1.17735,-17.09885 0.51391,-25.65285 -0.88011,-11.72604 -2.80243,-23.40228 -3.99346,-35.11559 -0.29132,-4.84632 -0.4896,-6.88907 -0.48282,-11.72066 0.0104,-7.41959 0.65312,-14.83021 1.02484,-22.24367 0.56535,-9.60535 1.03811,-19.21835 0.41319,-28.82891 -0.25936,-6.27273 -0.22676,-12.55057 -0.71186,-18.8191 -0.31032,-2.99223 -0.54478,-6.05778 -2.19198,-8.8994 0,0 11.1047,-3.8469 11.1047,-3.8469 z"
       inkscape:connector-curvature="0" />
    <path
       style="opacity:0.98000004;fill:#000000;fill-opacity:0.86473431;fill-rule:nonzero;stroke:none;stroke-width:1px;stroke-linecap:butt;stroke-linejoin:miter;stroke-opacity:1"
       id="path3340-3"
       d="m 392.93376,567.24867 c 1.34446,3.00021 1.58247,6.12187 1.82722,9.21859 0.32357,6.33643 0.11881,12.67678 0.21555,19.01501 0.42348,9.67058 -0.14992,19.33654 -0.78918,28.9967 -0.40193,7.42152 -1.0954,14.83892 -1.15105,22.26705 -0.0356,4.75629 0.14911,6.9355 0.39649,11.70728 1.07315,11.70156 3.04851,23.35909 4.12048,35.06045 0.77857,8.50288 0.72032,17.01518 0.15857,25.52041 -0.16083,4.37763 -0.86976,8.72997 -1.67129,13.07468 -0.41215,1.49166 -0.597,3.04048 -1.56712,4.44045 -1.8034,2.62122 -8.51304,6.04202 -11.92994,4.28798 9.79134,-4.92336 7.04019,-4.77871 13.7699,-4.6902 5.78933,0.007 11.5676,0.23195 17.35035,0.38208 12.4366,0.32461 24.88081,0.32327 37.32431,0.24768 20.05969,-0.0892 40.09245,0.70242 60.10608,1.46452 25.31729,1.07213 50.63679,2.09426 75.98351,2.84146 26.20159,0.76616 52.4294,0.85586 78.65044,0.6062 24.09933,-0.28524 48.14867,-1.38653 72.18909,-2.42972 21.34119,-0.97749 42.72201,-1.38945 64.11349,-1.42647 16.89793,0.171 33.79184,0.59431 50.6774,1.04111 10.37437,0.20193 20.72097,0.70576 31.06367,1.23242 2.28127,0.11317 4.5641,0.21401 6.84853,0.2978 0.81591,0.03 1.52637,0.13303 2.19146,-0.20036 0,0 -10.07949,4.9352 -10.07949,4.9352 l 0,0 c -2.93606,-0.14618 -5.85458,-0.41074 -8.78751,-0.5825 -10.11482,-0.67582 -20.24729,-1.23091 -30.41344,-1.48622 -16.7198,-0.53817 -33.45129,-1.04499 -50.19066,-1.22406 -21.28305,-0.009 -42.55848,0.37054 -63.79273,1.33235 -23.98269,1.01061 -47.97629,2.06163 -72.01568,2.30563 -26.20733,0.20354 -52.41912,0.0808 -78.60616,-0.67396 -25.43535,-0.7457 -50.84803,-1.72492 -76.26148,-2.72283 -20.21386,-0.68756 -40.45132,-1.36168 -60.70228,-1.13027 -12.64993,0.15664 -25.30091,0.2196 -37.95072,-0.002 -5.95078,-0.0991 -11.90086,-0.23657 -17.8539,-0.11985 -6.42195,0.0678 -6.64954,1.0303 6.8813,-4.64883 1.90729,-1.22559 -14.73817,5.51937 -10.17053,3.63584 1.49183,-1.20539 1.56831,-2.81741 2.13019,-4.25439 1.03666,-4.37639 1.92577,-8.76661 2.25861,-13.19166 0.84542,-8.5412 1.17735,-17.09885 0.51391,-25.65285 -0.88011,-11.72604 -2.80243,-23.40228 -3.99346,-35.11559 -0.29132,-4.84633 -0.4896,-6.88908 -0.48282,-11.72067 0.0104,-7.41958 0.65312,-14.8302 1.02484,-22.24366 0.56535,-9.60535 1.03811,-19.21835 0.41319,-28.8289 -0.25936,-6.27274 -0.22676,-12.55058 -0.71186,-18.81911 -0.31032,-2.99223 -0.54478,-6.05778 -2.19198,-8.8994 0,0 11.1047,-3.84691 11.1047,-3.84691 z"
       inkscape:connector-curvature="0" />
    <path
       style="opacity:0.98000004;fill:#000000;fill-opacity:0.86473431;fill-rule:nonzero;stroke:none;stroke-width:1px;stroke-linecap:butt;stroke-linejoin:miter;stroke-opacity:1"
       id="path3340-6"
       d="m 392.93376,786.00501 c 1.34446,3.00021 1.58247,6.12187 1.82721,9.2186 0.32358,6.33642 0.11882,12.67678 0.21556,19.015 0.42348,9.67059 -0.14993,19.33654 -0.78918,28.99671 -0.40193,7.42152 -1.0954,14.83892 -1.15105,22.26704 -0.0356,4.75629 0.1491,6.93551 0.39648,11.70729 1.07315,11.70158 3.04852,23.35906 4.12049,35.06043 0.77857,8.5029 0.72032,17.01516 0.15856,25.52044 -0.16082,4.37755 -0.86975,8.72999 -1.67129,13.07462 -0.41214,1.49172 -0.59699,3.0405 -1.56711,4.44052 -1.8034,2.62115 -8.51304,6.04202 -11.92995,4.28799 9.79134,-4.92334 7.0402,-4.77869 13.76991,-4.69018 5.78933,0.008 11.56759,0.23192 17.35034,0.382 12.43661,0.3247 24.88081,0.3233 37.32431,0.24769 20.0597,-0.0891 40.09245,0.70251 60.10608,1.46455 25.31729,1.07212 50.63679,2.09424 75.98351,2.84141 26.2016,0.76623 52.4294,0.85588 78.65045,0.60622 24.09933,-0.28521 48.14867,-1.38648 72.18909,-2.42962 21.34119,-0.97754 42.72201,-1.38951 64.11349,-1.42653 16.89793,0.17101 33.79184,0.59431 50.6774,1.04108 10.37437,0.20196 20.72097,0.70572 31.06367,1.23246 2.28127,0.11313 4.5641,0.21395 6.84853,0.29785 0.81591,0.0296 1.52637,0.13292 2.19146,-0.2004 0,0 -10.07949,4.93517 -10.07949,4.93517 l 0,0 c -2.93606,-0.14622 -5.85458,-0.41074 -8.78751,-0.58249 -10.11482,-0.67583 -20.24729,-1.2309 -30.41344,-1.48622 -16.7198,-0.53816 -33.45129,-1.04495 -50.19066,-1.22409 -21.28305,-0.009 -42.55848,0.3706 -63.79273,1.33237 -23.98269,1.01063 -47.97629,2.06165 -72.01568,2.30565 -26.20733,0.20352 -52.41912,0.0804 -78.60616,-0.67394 -25.43535,-0.7457 -50.84803,-1.72489 -76.26148,-2.72287 -20.21386,-0.68749 -40.45132,-1.36168 -60.70228,-1.13025 -12.64993,0.15665 -25.30091,0.21953 -37.95072,0 -5.95078,-0.0991 -11.90086,-0.2366 -17.8539,-0.11986 -6.42195,0.0681 -6.64954,1.03033 6.8813,-4.64881 1.90729,-1.22564 -14.73817,5.5193 -10.17053,3.6358 1.49183,-1.20536 1.56831,-2.81736 2.13019,-4.25441 1.03666,-4.3764 1.92577,-8.7666 2.25861,-13.19161 0.84542,-8.54123 1.17735,-17.0989 0.51391,-25.65287 -0.88011,-11.72607 -2.80243,-23.40232 -3.99346,-35.11559 -0.29132,-4.84635 -0.4896,-6.8891 -0.48282,-11.72069 0.0104,-7.41958 0.65312,-14.8302 1.02484,-22.24367 0.56535,-9.60534 1.03811,-19.21834 0.41319,-28.8289 -0.25936,-6.27273 -0.22676,-12.55058 -0.71186,-18.8191 -0.31032,-2.99223 -0.54478,-6.05778 -2.19198,-8.8994 0,0 11.1047,-3.84691 11.1047,-3.84691 z"
       inkscape:connector-curvature="0" />
    <path
       style="opacity:0.98000004;fill:#fd4646;fill-opacity:0.92753625"
       id="path4176"
       d="m 404.86903,514.50009 c 1.26349,-0.15212 2.50888,-0.34725 3.70879,-0.71163 1.84777,-0.40965 3.75717,-0.64222 5.65936,-0.81184 3.18882,-0.17366 6.37123,-0.40485 9.564,-0.53311 4.43078,-0.0965 8.84372,-0.50513 13.23552,-0.97515 5.9335,-0.80099 11.80735,-1.8667 17.65617,-3.00465 7.00334,-1.30012 13.98275,-2.68296 20.91544,-4.21661 7.53142,-1.66733 14.92076,-3.76755 22.12629,-6.21219 3.28608,-1.2006 4.03043,-1.4304 7.23771,-2.77087 1.19174,-0.49806 2.30796,-1.12374 3.5439,-1.54343 0.99002,-0.33614 -3.5801,1.89499 -2.80188,1.29153 0.98001,-0.76 2.29423,-1.16523 3.42202,-1.77241 1.14107,-0.61432 2.25569,-1.26097 3.38354,-1.89145 6.615,-3.89196 12.9894,-8.05167 19.38966,-12.17563 6.43731,-4.11187 12.78719,-8.30187 18.73954,-12.88043 5.88716,-4.67935 11.44738,-9.62499 17.02376,-14.55024 5.46979,-4.84522 11.09973,-9.56611 16.75562,-14.26495 5.72758,-4.76563 11.88523,-9.15928 18.10019,-13.48845 6.09611,-4.23219 12.41506,-8.2395 18.70536,-12.27389 6.50052,-4.30265 13.42049,-8.13767 20.38271,-11.91303 7.08607,-3.67144 14.26443,-7.26007 21.78938,-10.30207 3.48262,-1.40787 4.98618,-1.91736 8.54496,-3.20918 9.16963,-3.33428 18.68811,-5.91985 28.22141,-8.44654 10.37329,-2.8166 20.88926,-5.2497 31.49634,-7.39638 11.29378,-2.19827 22.67726,-4.06892 34.05489,-5.94857 11.56908,-1.9415 23.17195,-3.7385 34.81742,-5.34384 7.60231,-0.93462 15.20967,-1.90993 22.85556,-2.58326 1.68998,-0.14884 10.22887,-0.74933 11.89936,-0.86822 9.6281,-0.68224 19.27691,-1.1153 28.94072,-1.1402 4.78934,0.10908 9.62875,0.28702 14.32203,1.13343 0.33309,0.0526 0.66618,0.10521 0.99926,0.15781 0,0 -6.8254,3.86346 -6.8254,3.86346 l 0,0 c -0.2981,-0.0713 -0.5962,-0.1427 -0.8943,-0.21405 -4.45914,-0.92202 -9.07267,-1.20897 -13.65691,-1.34212 -9.46104,-0.11687 -18.91662,0.2066 -28.34653,0.85118 -11.62983,0.84111 -23.22876,1.94993 -34.75171,3.50492 -11.64451,1.60986 -23.24553,3.41182 -34.81204,5.36312 -11.39015,1.88518 -22.78647,3.76239 -34.08352,5.99835 -10.62471,2.19031 -21.16292,4.64651 -31.55874,7.48599 -9.56498,2.55769 -19.10326,5.20249 -28.2979,8.57344 -3.5896,1.31997 -5.04035,1.81558 -8.55019,3.25625 -1.37494,0.56436 -2.67339,1.25874 -4.09087,1.74743 -0.80738,0.27834 2.99909,-1.484 2.24958,-1.11265 -5.20798,2.58034 -2.41069,1.16743 -7.5369,3.79903 -6.92722,3.76321 -13.83966,7.55488 -20.31196,11.83846 -6.28277,4.04326 -12.61562,8.03643 -18.72607,12.25574 -6.22075,4.3106 -12.38505,8.68687 -18.11778,13.43637 -5.65738,4.69558 -11.29108,9.41137 -16.76785,14.24925 -5.58758,4.926 -11.15349,9.87567 -17.01102,14.58867 -5.92264,4.61464 -12.27231,8.81351 -18.7145,12.93122 -6.40619,4.1268 -12.78455,8.28999 -19.37922,12.21396 -8.63821,4.90001 -17.7562,9.28056 -27.44545,12.63808 -7.2598,2.41818 -14.68017,4.53217 -22.25319,6.19552 -6.97191,1.53339 -13.98836,2.91927 -21.01937,4.25879 -5.92952,1.15741 -11.87883,2.26782 -17.89739,3.07241 -4.45837,0.48372 -8.93417,0.90076 -13.43149,1.03382 -3.23078,0.16848 -6.45704,0.39961 -9.67807,0.66168 -1.91669,0.23289 -3.84617,0.48928 -5.69027,0.98885 -1.29315,0.2951 -2.61149,0.52863 -3.95506,0.59304 0,0 6.86509,-4.08476 6.86509,-4.08476 z"
       inkscape:connector-curvature="0" />
    <path
       style="opacity:0.98000004;fill:#8446fd;fill-opacity:0.92753625"
       id="path4178"
       d="m 392.54295,731.83937 c 1.62204,0.0565 3.24603,0.0478 4.86903,0.0589 2.66903,0.0537 5.33185,0.025 7.99718,-0.10239 3.63419,-0.15818 7.12656,-1.05907 10.54761,-2.10662 4.27315,-1.37051 8.36485,-3.12568 12.37642,-5.01717 0.70943,-0.34302 1.42119,-0.68218 2.12829,-1.02907 0.72137,-0.35389 1.44011,-0.71214 2.15704,-1.07323 0.73916,-0.37229 2.94882,-1.50167 2.21118,-1.12693 -1.16888,0.59384 -2.28306,1.2835 -3.50496,1.78422 -0.81276,0.33305 1.51676,-0.84772 2.27038,-1.27831 0.77324,-0.44179 1.54006,-0.89254 2.31009,-1.33881 4.9392,-2.9017 9.50342,-6.25569 13.88715,-9.79201 4.84403,-3.81902 8.99539,-8.22397 12.92913,-12.78608 4.12686,-4.8652 7.32415,-10.2763 10.52093,-15.65404 3.36596,-5.86405 6.71918,-11.73351 10.19088,-17.54796 3.81522,-6.28588 7.54815,-12.61165 11.36162,-18.89829 3.50567,-5.9036 7.56931,-11.50013 12.1199,-16.79267 2.73737,-3.13429 5.74396,-6.07827 9.17528,-8.61364 2.08439,-1.54012 2.70296,-1.84571 4.91928,-3.18514 4.97247,-2.69169 10.01683,-5.52522 15.73093,-6.7692 1.9581,-0.4263 3.05618,-0.48778 5.0466,-0.69767 4.47226,-0.30977 8.93383,0.30296 13.15125,1.65516 0.92983,0.29811 1.83274,0.65988 2.74915,0.98982 6.21355,2.39024 11.60752,6.0423 16.79794,9.86083 6.09061,4.55778 11.63393,9.64911 17.12136,14.77391 5.70763,5.26202 10.96665,10.89188 16.31504,16.44333 5.13235,5.36186 10.45279,10.57608 15.82347,15.74573 5.46897,5.16345 11.08045,10.2096 16.80315,15.14719 5.61696,4.89656 11.65814,9.3571 17.96522,13.51372 6.10299,3.96816 12.97812,6.72729 20.00282,9.08073 7.37114,2.23185 14.95523,3.80947 22.54662,5.29843 5.75135,1.02586 11.5061,2.06169 17.31214,2.81337 3.39954,0.44012 6.11706,0.6884 9.53699,1.03247 10.55529,0.96644 21.17135,1.12823 31.77158,1.25945 13.12407,0.37327 26.24854,0.45526 39.37678,0.25586 12.49443,-0.25384 24.97402,-0.83203 37.44119,-1.59668 11.27566,-0.79166 22.54792,-1.59131 33.83416,-2.25224 6.61926,-0.34348 3.40802,-0.17123 9.63389,-0.51482 0,0 -4.94561,3.25643 -4.94561,3.25643 l 0,0 c -6.05379,0.20713 -2.91103,0.081 -9.4279,0.38732 -11.23523,0.60107 -22.45314,1.38262 -33.6755,2.15009 -12.40837,0.72198 -24.82775,1.25706 -37.26203,1.44696 -13.22352,0.15136 -26.44868,0.10051 -39.67154,-0.0808 -10.66526,-0.10832 -21.34542,-0.25636 -31.96833,-1.196 -9.08948,-0.87749 -18.13074,-2.05939 -27.07656,-3.77214 -7.6448,-1.46877 -15.29027,-3.02208 -22.69257,-5.30833 -7.06311,-2.38109 -13.94849,-5.21367 -20.06774,-9.23025 -6.31103,-4.18418 -12.35025,-8.6831 -17.98188,-13.59222 -5.72056,-4.95559 -11.34289,-10.00692 -16.83855,-15.163 -5.37802,-5.16992 -10.67397,-10.41061 -15.79865,-15.78417 -5.33967,-5.5444 -10.55891,-11.192 -16.28599,-16.42426 -5.48388,-5.11081 -11.05821,-10.16148 -17.19621,-14.64948 -5.21853,-3.73926 -10.62181,-7.33957 -16.8587,-9.61098 -0.91827,-0.3102 -1.82409,-0.65169 -2.75473,-0.93061 -4.20861,-1.2614 -8.63736,-1.79189 -13.0614,-1.40594 -3.69425,0.43998 -6.47391,0.99132 -9.92007,2.33879 -0.83959,0.3283 -3.10731,1.65846 -2.48117,1.05892 0.82955,-0.79433 2.08323,-1.11686 3.12488,-1.67529 -2.22723,1.30049 -2.91488,1.63422 -5.01193,3.13707 -3.48698,2.49891 -6.5453,5.42061 -9.32336,8.54599 -4.62062,5.28677 -8.71188,10.82872 -12.26439,16.74973 -3.83462,6.26428 -7.55375,12.58547 -11.32831,18.87895 -3.44666,5.80203 -6.77279,11.65998 -10.10888,17.51355 -3.17987,5.38586 -6.3216,10.8244 -10.41043,15.71573 -3.89967,4.58471 -8.01577,9.01551 -12.83079,12.86283 -4.3367,3.55341 -8.85896,6.92131 -13.75394,9.84663 -6.16203,3.6034 -12.52762,6.91428 -19.02207,10.01208 -4.06613,1.88573 -8.20491,3.65106 -12.53303,5.00645 -3.50204,1.03836 -7.07276,1.90638 -10.78011,2.05344 -2.7112,0.13158 -5.42195,0.15428 -8.13694,0.15178 -1.68329,0.0113 -3.36742,0.004 -5.04986,0.0589 0,0 5.96758,-3.8883 5.96758,-3.8883 z"
       inkscape:connector-curvature="0" />
    <path
       style="opacity:0.98000004;fill:#46c3fd;fill-opacity:0.92753625"
       id="path4180"
       d="m 390.91274,822.08944 c 1.54471,2.1484 2.78981,4.45217 4.00673,6.75618 2.39614,4.77929 4.51975,9.65913 6.8235,14.47333 3.59739,7.80863 8.23297,15.16758 13.20825,22.33677 6.46016,9.15521 14.07892,17.58055 22.02097,25.74105 8.16571,8.02854 16.90078,15.60694 26.21747,22.58105 2.03437,1.52272 4.11841,2.99256 6.17761,4.48876 11.35324,7.94605 23.35239,15.13741 35.76774,21.70588 2.68984,1.42301 5.41576,2.79159 8.12364,4.18748 14.63818,7.35169 29.66549,14.10453 44.98794,20.26067 3.24239,1.3028 6.51639,2.5426 9.77467,3.8139 20.50271,7.9895 41.65952,14.5004 62.95264,20.5952 14.87398,4.1168 29.85599,7.9493 44.97151,11.30749 9.74188,2.1645 12.98993,2.7539 22.78095,4.7014 16.0303,2.9803 32.21311,5.317 48.48433,6.9761 10.48914,1.0693 15.48608,1.3895 25.96569,2.1963 22.48005,1.4805 44.9887,2.5845 67.48302,3.8772 13.51889,0.7514 27.0284,1.63 40.55946,2.191 0,0 -4.65118,2.9603 -4.65118,2.9603 l 0,0 c -13.21404,-0.9689 -26.43475,-1.8678 -39.65491,-2.7693 -22.2637,-1.4574 -44.5446,-2.7065 -66.79466,-4.3229 -25.05129,-2.0332 -50.16884,-4.2172 -74.77479,-9.0263 -9.52809,-1.9056 -13.29587,-2.6056 -22.77832,-4.7176 -15.13047,-3.36979 -30.12875,-7.20519 -45.02961,-11.29719 -9.27524,-2.6391 -12.65541,-3.5505 -21.8475,-6.3656 -13.9626,-4.2762 -27.75077,-8.9939 -41.33739,-14.1375 -3.27385,-1.2655 -6.56312,-2.5001 -9.82163,-3.7964 -15.40857,-6.12996 -30.5398,-12.83132 -45.28828,-20.12936 -6.83437,-3.47 -9.40787,-4.70337 -16.06173,-8.36891 -9.73539,-5.36301 -19.17402,-11.14809 -28.22854,-17.38225 -2.08271,-1.48892 -4.19226,-2.94868 -6.24813,-4.46674 -9.40981,-6.94806 -18.2484,-14.50428 -26.56422,-22.47251 -3.64705,-3.68321 -4.96042,-4.93565 -8.41994,-8.71887 -4.96661,-5.43124 -9.60461,-11.09917 -13.94906,-16.93458 -5.0801,-7.13646 -9.83921,-14.44933 -13.71086,-22.17351 -2.42551,-4.74229 -4.67601,-9.55307 -7.20593,-14.25297 -1.27592,-2.21944 -2.56032,-4.48226 -4.36797,-6.40598 0,0 6.42853,-3.41159 6.42853,-3.41159 z"
       inkscape:connector-curvature="0" />
    <path
       style="opacity:0.98000004;fill:#454c48;fill-opacity:0.95652173"
       id="path4186"
       d="m 292.25408,379.89091 c -2.50051,9.04838 -3.77043,18.42838 -5.30242,27.68229 -2.87679,17.99304 -5.37959,36.04248 -8.20024,54.04428 -0.99781,6.22703 -1.81385,12.47948 -2.56868,18.73961 0,0 -17.91737,8.77113 -17.91737,8.77113 l 0,0 c 1.28298,-6.39799 2.45629,-12.81534 3.58229,-19.24302 3.09478,-17.87781 5.65159,-35.8403 7.86974,-53.84783 1.1739,-8.98736 2.26741,-17.99181 3.40103,-26.97968 0,0 19.13565,-9.16678 19.13565,-9.16678 z"
       inkscape:connector-curvature="0" />
    <path
       style="opacity:0.98000004;fill:#454c48;fill-opacity:0.95652173"
       id="path4188"
       d="m 254.92124,434.33801 c 0.30283,-6.95393 1.14942,-13.86578 2.13591,-20.75097 1.29413,-5.94464 1.89381,-12.66177 5.64759,-17.71661 0.67875,-0.914 1.53649,-1.68036 2.30473,-2.52054 11.12155,-8.39749 22.42451,-16.36082 36.2407,-12.73883 1.45287,0.38088 2.83132,1.00359 4.24699,1.50539 6.1143,2.88041 11.73915,7.55101 13.71571,14.28547 0.33339,1.13593 0.39631,2.33429 0.59446,3.50143 -0.0394,8.33415 -5.37098,14.33706 -11.15063,19.6849 -10.80268,8.28781 -22.48485,16.11443 -35.46902,20.44701 -1.69803,0.33624 -3.3951,1.3294 -5.18404,1.10611 -0.24148,-0.0301 -0.8804,-0.11751 -0.68251,-0.25913 17.87927,-12.7951 11.83248,-15.81993 19.28712,-11.4966 5.31666,2.68506 9.08038,7.25111 12.77966,11.76602 6.15084,8.41239 12.15641,16.93356 17.77718,25.71063 3.3291,5.28757 6.12124,10.86116 8.78575,16.50216 0,0 -17.69883,9.9529 -17.69883,9.9529 l 0,0 c -2.27666,-5.716 -4.91343,-11.25705 -8.18212,-16.48521 -5.53837,-8.73567 -11.60399,-17.13013 -18.00874,-25.25053 -3.7192,-4.18808 -7.50479,-8.51968 -12.94992,-10.44045 -9.51965,-1.37816 14.22475,-12.79862 20.32944,-13.77929 6.85355,-2.56472 16.75192,-8.85839 -9.06729,6.24938 -1.06569,0.62357 2.1283,-1.25319 3.17177,-1.91325 1.08256,-0.68477 2.15632,-1.38468 3.20493,-2.12038 1.08365,-0.76027 2.12636,-1.57727 3.18954,-2.3659 5.60614,-4.77583 11.0279,-10.05454 11.78727,-17.78619 -0.10036,-1.02971 -0.0601,-2.08299 -0.30107,-3.08911 -1.50602,-6.28731 -6.96429,-10.4542 -12.57205,-12.91126 -4.30316,-1.27393 -7.76158,-2.04047 -12.30018,-1.5185 -1.27317,0.14642 -4.78367,1.53211 -3.77166,0.74581 4.40573,-3.4231 21.04303,-12.62981 11.11496,-7.09908 -2.04182,1.7677 -3.02755,2.32733 -4.41908,4.70004 -2.54565,4.3406 -3.18984,9.60183 -4.25742,14.41343 -1.01922,6.64013 -1.89563,13.40222 -1.57021,20.12828 0,0 -18.72894,9.54287 -18.72894,9.54287 z"
       inkscape:connector-curvature="0" />
    <path
       style="opacity:0.98000004;fill:#454c49;fill-opacity:0.9372549"
       id="path4194"
       d="m 274.22981,610.88042 c -10.7776,9.18063 -20.56918,19.42763 -29.96279,29.99787 -10.81077,12.4387 -20.25852,26.00273 -28.23887,40.41184 -4.64962,9.03411 -0.52292,4.68808 -20.55695,11.34371 -0.92333,0.30675 1.29765,-1.45022 1.93106,-2.18873 2.53008,-2.94991 3.61521,-4.33048 6.16755,-7.46766 5.46419,-6.90387 11.065,-13.73353 15.80516,-21.1709 3.55574,-5.57902 4.20718,-7.13194 7.31509,-13.05647 5.61761,-11.27639 9.1986,-23.35212 11.56386,-35.68425 2.06089,-8.43729 0.8899,-5.62014 19.18806,-12.26684 1.0629,-0.38609 0.73524,2.14954 0.92189,3.26488 0.22217,1.32764 0.19387,2.68523 0.2984,4.02727 0.54854,7.04269 0.30816,4.29581 1.20528,12.02405 2.01795,13.07206 4.71738,26.24097 10.11586,38.39635 0.9281,2.08974 2.07458,4.0755 3.11186,6.11325 3.73567,6.93439 9.21199,12.23191 15.59564,16.65537 1.05984,0.96761 2.17056,3.15845 0.39522,4.30693 -12.24292,7.92007 -16.26918,11.10029 -27.52283,13.79545 -15.07715,3.04105 -30.42485,1.39984 -45.55909,-0.19197 -8.01477,-1.03533 -16.03044,-2.06233 -24.05031,-3.05731 0,0 15.85655,-11.17682 15.85655,-11.17682 l 0,0 c 7.78492,1.28925 15.5792,2.5297 23.42473,3.40152 15.41014,1.50263 31.06711,2.69091 46.2505,-1.21184 1.46405,-0.45611 2.95399,-0.83619 4.39215,-1.36833 1.15291,-0.42658 4.40449,-2.16349 3.36776,-1.50291 -5.09297,3.2451 -10.46081,6.04375 -15.56341,9.27367 -0.38659,0.24471 0.89933,-0.17033 1.34507,-0.27353 0.16113,-0.0373 0.48032,0.0177 0.47373,-0.14754 -0.0118,-0.29562 -0.33906,-0.48494 -0.50859,-0.72741 -5.81666,-5.35648 -11.30394,-10.91533 -14.72097,-18.21539 -0.99977,-2.12641 -2.09393,-4.21096 -2.99931,-6.37924 -5.16051,-12.35877 -7.99377,-25.53109 -10.60028,-38.61258 -4.40956,-25.02611 1.54373,8.99804 -1.95677,-11.66837 -0.20543,-1.21286 -0.50356,-2.40988 -0.67838,-3.62754 -0.0406,-0.28309 -0.20529,-0.70141 0.0345,-0.85729 5.72727,-3.72323 11.51924,-7.37411 17.5533,-10.57633 0.61188,-0.32472 -0.68505,1.20418 -1.02758,1.80627 -3.6656,12.36305 -6.73399,24.96875 -12.46237,36.60802 -2.87258,5.75217 -3.70824,7.74407 -7.03419,13.17546 -4.54257,7.41819 -10.04273,14.17148 -15.26644,21.10515 -1.37462,1.80545 -3.99927,5.24002 -5.45402,7.19301 -0.48193,0.64701 -0.71048,1.5839 -1.42684,1.955 -26.40847,13.68038 -22.79753,13.86942 -17.08453,5.05149 8.9078,-14.35278 18.38288,-28.38462 29.33432,-41.27752 8.77016,-10.18821 17.93951,-19.98092 27.6036,-29.32851 0,0 19.42339,-7.87128 19.42339,-7.87128 z"
       inkscape:connector-curvature="0" />
    <path
       style="opacity:0.98000004;fill:#454c49;fill-opacity:0.9372549"
       id="path4196"
       d="m 310.68662,601.63397 c -4.42242,10.83164 -5.3959,22.68808 -6.52074,34.2145 -1.29825,17.19121 -1.15946,34.48026 -0.61657,51.70416 0,0 -17.75739,8.99278 -17.75739,8.99278 l 0,0 c 1.35808,-17.43148 0.87207,-34.90607 1.69707,-52.36131 0.64355,-11.29293 1.28096,-22.64299 3.998,-33.67058 0,0 19.19963,-8.87955 19.19963,-8.87955 z"
       inkscape:connector-curvature="0" />
    <path
       style="opacity:0.98000004;fill:#454c49;fill-opacity:0.9372549"
       id="path4198"
       d="m 277.64432,623.42814 c -0.68325,-5.3802 0.026,-10.60723 1.61832,-15.74661 5.24245,-11.10399 18.08627,-19.328 30.0081,-20.91258 1.43317,-0.1905 2.88693,-0.16359 4.33039,-0.24539 8.7519,0.43099 17.06396,3.67861 24.14895,8.80687 1.54599,1.11901 2.93886,2.4356 4.40829,3.6534 5.56011,5.64643 11.43291,12.77398 11.34461,21.20755 -0.014,1.34033 -0.3807,2.65363 -0.5711,3.98045 -1.5591,4.31994 -4.4247,7.30119 -8.38058,9.58656 -18.25452,10.54595 -17.41836,11.0656 -32.17269,15.16718 -7.9104,2.10056 -16.18643,3.22447 -23.74288,6.471 -9.20958,5.26857 10.94746,-6.26814 14.30358,-8.05489 0.26272,-0.13987 -1.25211,0.77975 -1.22066,2.13688 0.0311,1.34417 1.02019,2.1054 1.8021,3.06892 0.82519,0.78001 1.60608,1.60972 2.47556,2.34003 2.9599,2.48614 5.23021,3.8855 8.52674,6.06674 6.30713,4.17327 12.73505,8.15237 19.08165,12.2654 10.5435,6.9895 20.81708,14.47365 29.77548,23.43614 0,0 -17.4417,10.55612 -17.4417,10.55612 l 0,0 c -7.72491,-9.71549 -18.09177,-16.85168 -28.3076,-23.71718 -6.49178,-4.06217 -13.07521,-7.95006 -19.62828,-11.91139 -3.44809,-2.08438 -6.12799,-3.57181 -9.30266,-5.96037 -1.00303,-0.75466 -1.91656,-1.62146 -2.87483,-2.43219 -1.40096,-1.60284 -2.40724,-2.29871 -2.89472,-4.39382 -0.14309,-0.61497 -0.0742,-3.20683 0.62833,-3.67763 13.60443,-9.11664 13.02957,-8.75965 21.30294,-12.44303 7.56741,-2.53739 15.49409,-3.77418 23.19573,-5.82852 1.74641,-0.52153 3.51066,-0.98671 5.23924,-1.5646 1.71349,-0.57285 6.50891,-2.99331 5.08149,-1.88577 -3.85848,2.99381 -8.35272,5.0635 -12.50025,7.64202 -1.27919,0.79527 2.67398,-1.40906 3.89445,-2.2918 3.00895,-2.17632 2.98627,-2.72555 4.91123,-5.70983 0.28946,-1.17137 0.7538,-2.31297 0.86837,-3.51413 0.75849,-7.95265 -4.95406,-14.80438 -10.13332,-20.04854 -1.42083,-1.14234 -2.76428,-2.38821 -4.26247,-3.427 -6.99391,-4.84932 -15.20473,-7.68266 -23.73384,-7.52216 -1.40591,0.2027 -2.83648,0.27675 -4.21774,0.6081 -1.24096,0.29769 -4.66575,1.98947 -3.61168,1.27008 35.27019,-24.07125 14.58723,-9.23134 11.80683,-6.43908 -1.88351,1.89155 -2.21757,2.74175 -3.57915,4.98928 -1.63592,4.72031 -2.64989,9.59583 -1.52093,14.57703 0,0 -18.6553,9.89676 -18.6553,9.89676 z"
       inkscape:connector-curvature="0" />
    <path
       style="opacity:0.98000004;fill:#444c49;fill-opacity:0.89411765"
       id="path4200"
       d="m 239.25556,851.76238 c 0.50569,-0.90431 0.94972,-1.84043 1.40526,-2.77029 0.0608,-0.12413 0.0891,-0.46977 0.18563,-0.3708 0.2414,0.2476 0.0724,1.09782 0.39009,0.96128 6.18531,-2.65822 12.08128,-5.94471 18.12192,-8.91707 -8.68095,7.1505 -16.28359,15.52707 -23.66683,23.97815 -10.57189,13.04495 -20.11151,26.88811 -29.25893,40.95661 -0.80713,1.275 -1.61099,2.55207 -2.42139,3.825 -0.82486,1.29564 -1.48079,2.70701 -2.42736,3.9166 -0.0592,0.0756 0.0423,-0.32093 -0.0465,-0.28429 -6.20845,2.56334 -12.18569,5.70435 -18.5165,7.94854 -0.85475,0.303 1.20928,-1.35179 1.81391,-2.02768 8.77075,-10.33732 15.80567,-21.94671 22.69574,-33.57498 7.64526,-12.29675 13.61077,-25.53965 20.93736,-38.00858 5.84904,-7.5144 3.79916,-5.44275 20.93571,-13.11313 0.72933,-0.32645 1.34124,0.90595 1.85614,1.517 1.99618,2.36899 2.79663,5.94934 3.71297,8.79757 3.46992,12.13989 6.83214,24.2966 10.72554,36.31078 3.59806,11.41623 8.91241,22.15633 15.3751,32.20063 0.88538,2.18048 3.18884,3.88023 3.69388,6.25684 0.11418,0.53727 0.43931,1.34014 -0.0158,1.64774 -17.65308,11.93252 -12.04922,11.83025 -21.74911,11.17405 -12.86207,-1.8677 -25.62318,-3.49499 -38.61643,-4.18843 -13.80324,-0.63897 -27.52173,1.01684 -41.22294,2.38644 0,0 15.78311,-11.66312 15.78311,-11.66312 l 0,0 c 13.52923,-0.8214 27.04957,-2.24131 40.62697,-1.64343 9.37399,0.4257 8.62497,0.2877 17.7203,1.0938 6.21412,0.55074 12.43127,1.49141 18.66892,1.75681 1.23066,0.0524 2.46355,-0.002 3.69532,-0.003 8.88575,-1.75789 2.73529,-0.84481 -14.07702,9.9112 -0.25195,0.16119 0.73533,-0.0662 0.82566,-0.35135 0.24159,-0.7626 -1.26801,-3.26876 -1.3653,-3.4547 -0.48779,-0.93223 -0.98822,-1.85778 -1.48232,-2.78667 -5.76248,-10.62793 -11.00291,-21.53721 -14.63772,-33.1029 -3.99982,-11.87689 -7.6284,-23.87598 -11.74303,-35.71164 -0.7518,-1.98481 -1.3976,-3.98578 -2.46897,-5.83075 -0.2923,-0.50337 -0.59407,-1.03438 -1.05182,-1.39394 -0.19838,-0.15582 -0.96887,0.10951 -0.75632,-0.0263 19.14546,-12.23558 20.61763,-13.79853 14.03637,-7.89574 -8.5527,12.14258 -14.56899,25.86878 -22.3113,38.51563 -6.45325,11.31102 -12.91712,22.6542 -20.79037,33.05939 -5.54536,7.93292 -1.48292,2.80778 -21.44513,11.64829 -0.24262,0.10745 -0.10163,-0.55969 0.0195,-0.7958 0.81617,-1.59131 2.20772,-2.81519 3.25873,-4.26218 0.9594,-1.32087 1.87599,-2.67232 2.81398,-4.00848 9.78042,-13.94177 19.45665,-27.96888 29.86954,-41.45094 6.77058,-8.16259 13.86741,-16.01418 21.37097,-23.5115 6.59198,-3.38153 18.51468,-16.05792 20.37254,-8.88594 0.27913,1.07753 -1.43659,2.3875 -1.52483,3.43212 0,0 -19.31527,8.73884 -19.31527,8.73884 z"
       inkscape:connector-curvature="0" />
    <path
       style="opacity:0.98000004;fill:#454c49;fill-opacity:0.9372549"
       id="path4202"
       d="m 259.25556,827.47666 c 5.25843,-7.97458 15.89748,-17.35103 25.3005,-13.00795 4.15746,3.66954 5.30045,9.08053 5.99842,14.33756 0.30423,4.48674 -0.14794,8.86899 -2.21729,12.88992 -1.09525,1.6202 -2.4186,3.13889 -2.80458,5.09914 0.58391,2.55838 4.3459,2.72314 6.42066,2.85738 4.45278,-0.0155 8.90257,-0.0196 13.31127,0.66154 0,0 -16.9753,11.95422 -16.9753,11.95422 l 0,0 c -4.39968,-0.62668 -8.82296,-0.41325 -13.25102,-0.62037 -3.46773,-0.55159 -7.26839,-1.49249 -8.34227,-5.29437 -0.22411,-2.44387 0.78751,-4.42823 2.39259,-6.25405 2.87536,-3.22663 3.28259,-7.56673 3.23704,-11.73429 -0.44453,-4.35061 -1.18494,-9.5219 -5.13527,-12.13267 -0.41673,-0.0772 -0.82649,-0.24199 -1.25019,-0.23175 -0.4443,0.0107 -1.67769,0.52863 -1.30061,0.29341 36.04747,-22.48627 18.02327,-12.22305 13.93131,-7.55656 0,0 -19.31526,8.73884 -19.31526,8.73884 z"
       inkscape:connector-curvature="0" />
    <path
       style="opacity:0.98000004;fill:#454c49;fill-opacity:0.9372549"
       id="path4204"
       d="m 323.49579,837.47301 c -3.45709,10.31057 -4.10269,21.41901 -5.03729,32.18951 -0.94838,12.55104 -1.17893,25.13997 -1.03427,37.72124 0,0 -17.53948,8.8987 -17.53948,8.8987 l 0,0 c 0.57321,-12.6932 0.91152,-25.39555 1.52358,-38.08714 0.61416,-10.59887 1.16579,-21.28111 2.98377,-31.7505 0,0 19.10369,-8.97181 19.10369,-8.97181 z"
       inkscape:connector-curvature="0" />
    <path
       style="opacity:0.98000004;fill:#454c49;fill-opacity:0.9372549"
       id="path4206"
       d="m 300.56726,854.88544 c 0.18858,-4.5682 0.77173,-9.07649 2.44414,-13.34289 0.43237,-0.68401 0.77898,-1.43045 1.2971,-2.05202 0.54178,-0.64995 1.12996,-1.29746 1.85647,-1.73121 6.86373,-4.09784 14.19954,-11.25411 22.90715,-11.73904 2.61207,-0.14547 4.13275,0.17479 6.74472,0.5054 7.738,1.71425 14.83334,5.24261 21.29444,9.7523 5.4419,4.50555 9.1561,10.30041 10.8071,17.13942 0.9424,7.15343 -2.6222,10.72247 -8.1946,14.42742 -16.39085,10.34403 -22.76313,14.06339 -39.79216,15.82335 -2.93211,0.39843 -5.88956,0.29316 -8.82834,0.0608 -1.57959,-0.12488 -2.64948,-0.46398 -4.01017,0.38654 5.91507,-3.35398 11.85144,-6.67065 17.74519,-10.06194 0.0919,-0.0529 -0.31117,-0.0726 -0.31621,0.0332 -0.009,0.19314 0.17347,0.34821 0.29071,0.50197 0.31086,0.40771 0.62512,0.81691 0.98971,1.17738 0.43334,0.42846 4.28596,3.70805 4.34394,3.75768 8.76236,7.58481 17.01678,15.71805 25.14433,23.97079 4.4587,4.59763 8.8064,9.31235 12.7883,14.33041 0,0 -17.63737,10.41199 -17.63737,10.41199 l 0,0 c -3.36606,-5.2805 -7.40215,-10.08248 -11.75419,-14.5833 -8.15172,-8.24754 -16.53442,-16.29524 -25.82238,-23.27379 -13.30219,-9.93686 -8.54308,-7.74243 11.02529,-19.11315 4.11873,0.12974 8.22488,1.08823 12.35975,0.26798 3.76298,-0.44532 7.4723,-0.94347 11.1353,-1.95794 7.04225,-1.95036 20.7892,-9.62834 -6.68196,5.62941 5.13086,-2.89724 9.36316,-5.51547 9.06209,-12.05316 -1.18254,-6.46404 -4.62639,-11.84546 -9.7688,-15.95852 -6.27566,-4.30185 -13.18751,-7.6628 -20.77546,-8.83586 -2.60492,-0.13337 -3.99107,-0.3719 -6.53871,0.11564 -0.90634,0.17345 -3.41992,1.31166 -2.64879,0.80482 4.98436,-3.27609 10.25219,-6.09914 15.36847,-9.16512 0.67554,-0.40483 -1.42931,0.69171 -2.04603,1.18151 -0.58119,0.46159 -1.00419,1.09316 -1.50628,1.63974 -1.99776,3.79197 -2.69329,8.06177 -2.41728,12.33766 0,0 -18.86547,9.61244 -18.86547,9.61244 z"
       inkscape:connector-curvature="0" />
  </g>
</svg>
